<mxfile host="app.diagrams.net" modified="2022-05-22T01:26:20.545Z" agent="5.0 (Windows NT 10.0; Win64; x64) AppleWebKit/537.36 (KHTML, like Gecko) Chrome/101.0.4951.64 Safari/537.36 Edg/101.0.1210.53" etag="-kiPKl1bSLOtdE38P7SA" version="18.1.1" type="github">
  <diagram id="7wImWvy8_txZY_yKZ1tb" name="Page-1">
    <mxGraphModel dx="1422" dy="754" grid="1" gridSize="10" guides="1" tooltips="1" connect="1" arrows="1" fold="1" page="1" pageScale="1" pageWidth="827" pageHeight="1169" math="0" shadow="0">
      <root>
        <mxCell id="0" />
        <mxCell id="1" parent="0" />
        <mxCell id="kinOWrcmF68DsSauvEnQ-2" value="&lt;span style=&quot;&quot;&gt;FILES&lt;br&gt;&lt;br&gt;id: pk&lt;/span&gt;&lt;br style=&quot;&quot;&gt;&lt;span style=&quot;&quot;&gt;name: string&lt;br&gt;&lt;/span&gt;extension&lt;br style=&quot;&quot;&gt;&lt;span style=&quot;&quot;&gt;path: string&lt;br&gt;&lt;/span&gt;size: number&lt;br&gt;created_at: dateTime&lt;br style=&quot;&quot;&gt;&lt;span style=&quot;&quot;&gt;status: boolean&lt;/span&gt;" style="shape=cylinder3;whiteSpace=wrap;html=1;boundedLbl=1;backgroundOutline=1;size=15;" parent="1" vertex="1">
          <mxGeometry x="325" y="620" width="125" height="180" as="geometry" />
        </mxCell>
        <mxCell id="kinOWrcmF68DsSauvEnQ-5" value="" style="edgeStyle=orthogonalEdgeStyle;rounded=0;orthogonalLoop=1;jettySize=auto;html=1;" parent="1" source="kinOWrcmF68DsSauvEnQ-3" target="kinOWrcmF68DsSauvEnQ-4" edge="1">
          <mxGeometry relative="1" as="geometry" />
        </mxCell>
        <mxCell id="kinOWrcmF68DsSauvEnQ-3" value="Início" style="ellipse;whiteSpace=wrap;html=1;aspect=fixed;" parent="1" vertex="1">
          <mxGeometry x="111" y="140" width="80" height="80" as="geometry" />
        </mxCell>
        <mxCell id="kinOWrcmF68DsSauvEnQ-9" value="" style="edgeStyle=orthogonalEdgeStyle;rounded=0;orthogonalLoop=1;jettySize=auto;html=1;" parent="1" source="kinOWrcmF68DsSauvEnQ-4" target="kinOWrcmF68DsSauvEnQ-8" edge="1">
          <mxGeometry relative="1" as="geometry" />
        </mxCell>
        <mxCell id="kinOWrcmF68DsSauvEnQ-4" value="Usuário acessa &lt;br&gt;&lt;b&gt;Tela de Login&lt;/b&gt;" style="whiteSpace=wrap;html=1;" parent="1" vertex="1">
          <mxGeometry x="231" y="150" width="120" height="60" as="geometry" />
        </mxCell>
        <mxCell id="kinOWrcmF68DsSauvEnQ-19" value="" style="edgeStyle=orthogonalEdgeStyle;rounded=0;orthogonalLoop=1;jettySize=auto;html=1;" parent="1" source="kinOWrcmF68DsSauvEnQ-8" target="kinOWrcmF68DsSauvEnQ-18" edge="1">
          <mxGeometry relative="1" as="geometry" />
        </mxCell>
        <mxCell id="kinOWrcmF68DsSauvEnQ-8" value="Usuário Fornece &lt;br&gt;&lt;b&gt;Email e Password&lt;/b&gt;" style="shape=parallelogram;perimeter=parallelogramPerimeter;whiteSpace=wrap;html=1;fixedSize=1;" parent="1" vertex="1">
          <mxGeometry x="381" y="150" width="150" height="60" as="geometry" />
        </mxCell>
        <mxCell id="kinOWrcmF68DsSauvEnQ-13" value="" style="edgeStyle=orthogonalEdgeStyle;rounded=0;orthogonalLoop=1;jettySize=auto;html=1;" parent="1" source="kinOWrcmF68DsSauvEnQ-10" target="kinOWrcmF68DsSauvEnQ-12" edge="1">
          <mxGeometry relative="1" as="geometry" />
        </mxCell>
        <mxCell id="kinOWrcmF68DsSauvEnQ-10" value="Sistema carrega tela&lt;br&gt;&lt;b&gt;Arquivos Disponíveis&lt;/b&gt;" style="ellipse;whiteSpace=wrap;html=1;" parent="1" vertex="1">
          <mxGeometry x="100" y="270" width="145" height="60" as="geometry" />
        </mxCell>
        <mxCell id="kinOWrcmF68DsSauvEnQ-15" value="" style="edgeStyle=orthogonalEdgeStyle;rounded=0;orthogonalLoop=1;jettySize=auto;html=1;" parent="1" source="kinOWrcmF68DsSauvEnQ-12" target="kinOWrcmF68DsSauvEnQ-14" edge="1">
          <mxGeometry relative="1" as="geometry" />
        </mxCell>
        <mxCell id="kinOWrcmF68DsSauvEnQ-12" value="Usuário Clica em &lt;br&gt;Baixar Arquivo" style="shape=parallelogram;perimeter=parallelogramPerimeter;whiteSpace=wrap;html=1;fixedSize=1;" parent="1" vertex="1">
          <mxGeometry x="295" y="270" width="167.5" height="60" as="geometry" />
        </mxCell>
        <mxCell id="kinOWrcmF68DsSauvEnQ-17" value="" style="edgeStyle=orthogonalEdgeStyle;rounded=0;orthogonalLoop=1;jettySize=auto;html=1;" parent="1" source="kinOWrcmF68DsSauvEnQ-14" target="kinOWrcmF68DsSauvEnQ-16" edge="1">
          <mxGeometry relative="1" as="geometry" />
        </mxCell>
        <mxCell id="kinOWrcmF68DsSauvEnQ-14" value="Sistema Grava Log de download" style="ellipse;whiteSpace=wrap;html=1;" parent="1" vertex="1">
          <mxGeometry x="510" y="270" width="120" height="60" as="geometry" />
        </mxCell>
        <mxCell id="kinOWrcmF68DsSauvEnQ-24" style="edgeStyle=orthogonalEdgeStyle;rounded=0;orthogonalLoop=1;jettySize=auto;html=1;exitX=0.5;exitY=1;exitDx=0;exitDy=0;" parent="1" source="kinOWrcmF68DsSauvEnQ-16" target="kinOWrcmF68DsSauvEnQ-25" edge="1">
          <mxGeometry relative="1" as="geometry">
            <mxPoint x="570" y="500" as="targetPoint" />
          </mxGeometry>
        </mxCell>
        <mxCell id="kinOWrcmF68DsSauvEnQ-16" value="Sistema envia arquivo para Usuário" style="ellipse;whiteSpace=wrap;html=1;" parent="1" vertex="1">
          <mxGeometry x="501.25" y="370" width="137.5" height="60" as="geometry" />
        </mxCell>
        <mxCell id="kinOWrcmF68DsSauvEnQ-22" style="edgeStyle=orthogonalEdgeStyle;rounded=0;orthogonalLoop=1;jettySize=auto;html=1;exitX=0.5;exitY=1;exitDx=0;exitDy=0;" parent="1" source="kinOWrcmF68DsSauvEnQ-18" target="kinOWrcmF68DsSauvEnQ-10" edge="1">
          <mxGeometry relative="1" as="geometry" />
        </mxCell>
        <mxCell id="kinOWrcmF68DsSauvEnQ-23" value="SIM" style="edgeLabel;html=1;align=center;verticalAlign=middle;resizable=0;points=[];" parent="kinOWrcmF68DsSauvEnQ-22" vertex="1" connectable="0">
          <mxGeometry x="-0.1603" relative="1" as="geometry">
            <mxPoint as="offset" />
          </mxGeometry>
        </mxCell>
        <mxCell id="kinOWrcmF68DsSauvEnQ-26" style="edgeStyle=orthogonalEdgeStyle;rounded=0;orthogonalLoop=1;jettySize=auto;html=1;exitX=0.5;exitY=0;exitDx=0;exitDy=0;entryX=0.5;entryY=0;entryDx=0;entryDy=0;" parent="1" source="kinOWrcmF68DsSauvEnQ-18" target="kinOWrcmF68DsSauvEnQ-4" edge="1">
          <mxGeometry relative="1" as="geometry">
            <Array as="points">
              <mxPoint x="642" y="90" />
              <mxPoint x="291" y="90" />
            </Array>
          </mxGeometry>
        </mxCell>
        <mxCell id="kinOWrcmF68DsSauvEnQ-27" value="NÃO" style="edgeLabel;html=1;align=center;verticalAlign=middle;resizable=0;points=[];" parent="kinOWrcmF68DsSauvEnQ-26" vertex="1" connectable="0">
          <mxGeometry x="-0.189" y="2" relative="1" as="geometry">
            <mxPoint x="-41" as="offset" />
          </mxGeometry>
        </mxCell>
        <mxCell id="kinOWrcmF68DsSauvEnQ-18" value="Login Validado?" style="rhombus;whiteSpace=wrap;html=1;" parent="1" vertex="1">
          <mxGeometry x="580" y="140" width="124" height="80" as="geometry" />
        </mxCell>
        <mxCell id="kinOWrcmF68DsSauvEnQ-25" value="Fim" style="ellipse;whiteSpace=wrap;html=1;aspect=fixed;" parent="1" vertex="1">
          <mxGeometry x="530" y="465" width="80" height="80" as="geometry" />
        </mxCell>
        <mxCell id="kinOWrcmF68DsSauvEnQ-29" value="USERS&lt;br&gt;&lt;br&gt;id: pk&lt;br&gt;name: string&lt;br&gt;username: string&lt;br&gt;password: string&lt;br&gt;status: boolean" style="shape=cylinder3;whiteSpace=wrap;html=1;boundedLbl=1;backgroundOutline=1;size=15;" parent="1" vertex="1">
          <mxGeometry x="30" y="620" width="120" height="200" as="geometry" />
        </mxCell>
        <mxCell id="fhGjHgwEicPjv-3-HmBG-8" style="edgeStyle=orthogonalEdgeStyle;rounded=0;orthogonalLoop=1;jettySize=auto;html=1;entryX=0.5;entryY=1;entryDx=0;entryDy=0;entryPerimeter=0;" edge="1" parent="1" source="fhGjHgwEicPjv-3-HmBG-1" target="kinOWrcmF68DsSauvEnQ-29">
          <mxGeometry relative="1" as="geometry" />
        </mxCell>
        <mxCell id="fhGjHgwEicPjv-3-HmBG-9" style="edgeStyle=orthogonalEdgeStyle;rounded=0;orthogonalLoop=1;jettySize=auto;html=1;exitX=1;exitY=0.5;exitDx=0;exitDy=0;exitPerimeter=0;" edge="1" parent="1" source="fhGjHgwEicPjv-3-HmBG-1">
          <mxGeometry relative="1" as="geometry">
            <mxPoint x="390" y="801" as="targetPoint" />
            <Array as="points">
              <mxPoint x="390" y="1000" />
            </Array>
          </mxGeometry>
        </mxCell>
        <mxCell id="fhGjHgwEicPjv-3-HmBG-1" value="&lt;span style=&quot;&quot;&gt;DOWNLOADS&lt;br&gt;&lt;br&gt;id: pk&lt;br&gt;&lt;/span&gt;&lt;span style=&quot;&quot;&gt;user_id: fk&lt;/span&gt;&lt;br style=&quot;&quot;&gt;&lt;span style=&quot;&quot;&gt;file_id: fk&lt;br&gt;created_at: dateTime&lt;br&gt;&lt;/span&gt;" style="shape=cylinder3;whiteSpace=wrap;html=1;boundedLbl=1;backgroundOutline=1;size=15;" vertex="1" parent="1">
          <mxGeometry x="175" y="930" width="130" height="140" as="geometry" />
        </mxCell>
        <mxCell id="fhGjHgwEicPjv-3-HmBG-6" style="edgeStyle=orthogonalEdgeStyle;rounded=0;orthogonalLoop=1;jettySize=auto;html=1;entryX=0.675;entryY=1.01;entryDx=0;entryDy=0;entryPerimeter=0;" edge="1" parent="1" source="fhGjHgwEicPjv-3-HmBG-3" target="kinOWrcmF68DsSauvEnQ-29">
          <mxGeometry relative="1" as="geometry">
            <Array as="points">
              <mxPoint x="110" y="860" />
            </Array>
          </mxGeometry>
        </mxCell>
        <mxCell id="fhGjHgwEicPjv-3-HmBG-7" style="edgeStyle=orthogonalEdgeStyle;rounded=0;orthogonalLoop=1;jettySize=auto;html=1;entryX=0.384;entryY=1.017;entryDx=0;entryDy=0;entryPerimeter=0;" edge="1" parent="1" source="fhGjHgwEicPjv-3-HmBG-3" target="kinOWrcmF68DsSauvEnQ-2">
          <mxGeometry relative="1" as="geometry">
            <Array as="points">
              <mxPoint x="373" y="860" />
            </Array>
          </mxGeometry>
        </mxCell>
        <mxCell id="fhGjHgwEicPjv-3-HmBG-3" value="&lt;span style=&quot;&quot;&gt;POOL&lt;br&gt;&lt;br&gt;id: pk&lt;/span&gt;&lt;br style=&quot;&quot;&gt;user_id: fk&lt;br&gt;file_id: fk" style="shape=cylinder3;whiteSpace=wrap;html=1;boundedLbl=1;backgroundOutline=1;size=15;" vertex="1" parent="1">
          <mxGeometry x="185" y="740" width="110" height="180" as="geometry" />
        </mxCell>
      </root>
    </mxGraphModel>
  </diagram>
</mxfile>
